<svg viewBox="0 0 400 400" xmlns="http://www.w3.org/2000/svg">
  <defs>
    <linearGradient id="oceanSky" x1="0%" y1="0%" x2="0%" y2="100%">
      <stop offset="0%" style="stop-color:#00BFFF;stop-opacity:1" />
      <stop offset="100%" style="stop-color:#87CEEB;stop-opacity:1" />
    </linearGradient>
    <linearGradient id="wave1" x1="0%" y1="0%" x2="0%" y2="100%">
      <stop offset="0%" style="stop-color:#20B2AA;stop-opacity:1" />
      <stop offset="100%" style="stop-color:#008B8B;stop-opacity:1" />
    </linearGradient>
    <linearGradient id="wave2" x1="0%" y1="0%" x2="0%" y2="100%">
      <stop offset="0%" style="stop-color:#48D1CC;stop-opacity:1" />
      <stop offset="100%" style="stop-color:#20B2AA;stop-opacity:1" />
    </linearGradient>
    <linearGradient id="wave3" x1="0%" y1="0%" x2="0%" y2="100%">
      <stop offset="0%" style="stop-color:#40E0D0;stop-opacity:1" />
      <stop offset="100%" style="stop-color:#48D1CC;stop-opacity:1" />
    </linearGradient>
    <linearGradient id="island" x1="0%" y1="0%" x2="0%" y2="100%">
      <stop offset="0%" style="stop-color:#DEB887;stop-opacity:1" />
      <stop offset="100%" style="stop-color:#8B7D6B;stop-opacity:1" />
    </linearGradient>
  </defs>
  
  <!-- Ocean sky -->
  <rect width="400" height="400" fill="url(#oceanSky)" />
  
  <!-- Clouds as geometric shapes -->
  <polygon points="60,80 80,70 120,70 140,80 130,90 70,90" fill="#FFFFFF" opacity="0.8" />
  <polygon points="260,60 280,50 320,50 340,60 330,70 270,70" fill="#FFFFFF" opacity="0.8" />
  
  <!-- Island -->
  <polygon points="280,200 350,150 400,180 400,250 320,250" fill="url(#island)" />
  
  <!-- Palm tree on island -->
  <polygon points="340,180 345,160 350,180" fill="#8B4513" />
  <polygon points="330,160 345,150 360,160 350,170 340,170" fill="#228B22" />
  
  <!-- Wave layers -->
  <polygon points="0,250 80,240 160,260 240,250 320,270 400,260 400,400 0,400" fill="url(#wave1)" />
  <polygon points="0,300 100,290 200,310 300,300 400,320 400,400 0,400" fill="url(#wave2)" />
  <polygon points="0,350 120,340 240,360 360,350 400,370 400,400 0,400" fill="url(#wave3)" />
  
  <!-- Floating geometric elements -->
  <polygon points="100,200 120,180 140,200 120,220" fill="#FFD700" opacity="0.6" />
  <polygon points="200,220 220,200 240,220 220,240" fill="#FF69B4" opacity="0.5" />
  
  <!-- Sailboat as triangular shapes -->
  <polygon points="150,280 160,260 170,280" fill="#FFFFFF" />
  <polygon points="155,280 165,285 155,290" fill="#8B4513" />
</svg>